<svg width="214" height="225" viewBox="0 0 214 225" fill="none" xmlns="http://www.w3.org/2000/svg">
<path d="M103.688 3.28187C126.857 12.5465 129.076 36.2278 149.935 38.2604C168.112 40.0315 175.02 22.8886 187.774 25.96C207.202 30.6389 219.416 77.2195 211.614 115.521C203.557 155.069 169.706 207.643 113.626 211.231C50.6633 215.26 3.02283 154.768 0.113345 101.684C-0.200854 95.9431 -2.05934 47.841 34.5079 19.4262C36.335 18.0067 72.3681 -9.24133 103.688 3.28266L103.688 3.28187Z" fill="#F4F7FA"/>
<path d="M164.956 196.092C165.923 198.399 167.725 201.602 169.645 205.292H128.736C134.985 193.673 143.159 181.707 136.79 159.025C133.801 148.381 124.562 129.087 131.094 118.069C138.537 105.516 148.626 112.873 152.885 102.937C159.542 87.4045 174.841 78.1533 188.382 88.3255C201.745 98.3651 197.088 127.26 173.413 156.164C158.764 178.835 159.905 184.047 164.955 196.092H164.956Z" fill="url(#paint0_linear_545_2703)"/>
<mask id="mask0_545_2703" style="mask-type:luminance" maskUnits="userSpaceOnUse" x="128" y="84" width="68" height="122">
<path d="M164.956 196.092C165.923 198.399 167.725 201.602 169.645 205.292H128.736C134.985 193.673 143.159 181.707 136.79 159.025C133.801 148.381 124.562 129.087 131.094 118.069C138.537 105.516 148.626 112.873 152.885 102.937C159.542 87.4045 174.841 78.1533 188.382 88.3255C201.745 98.3651 197.088 127.26 173.413 156.164C158.764 178.835 159.905 184.047 164.955 196.092H164.956Z" fill="white"/>
</mask>
<g mask="url(#mask0_545_2703)">
<g style="mix-blend-mode:soft-light" opacity="0.5">
<path d="M148.496 202.909C148.969 197.574 149.683 192.568 150.44 187.266L150.692 185.499C151.213 182.969 151.658 180.46 152.089 178.034C153.06 172.556 153.978 167.381 155.7 161.995C155.765 161.676 155.811 161.363 155.861 161.032C156.037 159.848 156.22 158.625 157.072 157.554L157.095 157.507C164.052 128.713 177.031 100.88 195.673 74.7826L195.48 74.6436C176.826 100.759 163.836 128.611 156.87 157.426C155.992 158.543 155.798 159.846 155.626 160.997C155.577 161.326 155.531 161.636 155.47 161.936C153.748 167.324 152.828 172.506 151.855 177.993C151.424 180.417 150.979 182.925 150.458 185.459L150.205 187.234C149.448 192.538 148.733 197.548 148.259 202.889L148.496 202.911V202.909Z" fill="#FCFDFE"/>
<path d="M152.493 177.059C154.738 163.29 149.859 145.834 145.37 133.616C140.508 120.384 135.046 110.273 134.991 110.172L134.783 110.287C134.837 110.387 140.293 120.486 145.148 133.702C149.627 145.893 154.496 163.303 152.259 177.02L152.493 177.059Z" fill="#FCFDFE"/>
<path d="M170.353 118.398C173.545 103.92 173.561 87.9831 173.566 82.7457C173.567 81.744 173.568 81.082 173.591 80.9564L173.358 80.9146C173.332 81.0552 173.331 81.5773 173.33 82.7457C173.325 87.9768 173.309 103.894 170.122 118.347L170.354 118.398H170.353Z" fill="#FCFDFE"/>
<path d="M161.749 141.038C168.475 129.145 195.759 121.703 196.034 121.629L195.973 121.398C195.697 121.473 168.317 128.94 161.542 140.92L161.749 141.038V141.038Z" fill="#FCFDFE"/>
</g>
</g>
<path d="M161.504 165.892C161.283 184.794 152.219 178.566 143.86 180.431C134.213 194.468 133.305 207.492 147.708 218.739L163.758 216.323C169.712 216.045 176.7 214.215 176.306 206.24C175.86 197.221 173.739 191.493 183.862 187.064C193.984 182.635 198.332 174.553 194.233 165.36C189.919 155.686 200.037 142.646 192.643 136.164C179.76 124.87 161.735 146.209 161.506 165.891L161.504 165.892Z" fill="url(#paint1_linear_545_2703)"/>
<mask id="mask1_545_2703" style="mask-type:luminance" maskUnits="userSpaceOnUse" x="136" y="133" width="60" height="86">
<path d="M161.504 165.892C161.283 184.794 152.219 178.566 143.86 180.431C134.213 194.468 133.305 207.492 147.708 218.739L163.758 216.323C169.712 216.045 176.7 214.215 176.306 206.24C175.86 197.221 173.739 191.493 183.862 187.064C193.984 182.635 198.332 174.553 194.233 165.36C189.919 155.686 200.037 142.646 192.643 136.164C179.76 124.87 161.735 146.209 161.506 165.891L161.504 165.892Z" fill="white"/>
</mask>
<g mask="url(#mask1_545_2703)">
<g style="mix-blend-mode:soft-light" opacity="0.5">
<path d="M157.519 199.717C164.219 192.345 170.025 184.153 174.774 175.367C179.564 166.507 183.215 157.161 185.626 147.589C187.008 142.101 187.984 136.509 188.526 130.969L188.285 130.946C187.743 136.473 186.77 142.053 185.391 147.53C182.986 157.082 179.342 166.409 174.561 175.251C169.821 184.019 164.028 192.195 157.34 199.553L157.519 199.718V199.717Z" fill="#FCFDFE"/>
<path d="M174.794 210.098L174.904 209.88C171.923 208.353 168.407 207.162 164.453 206.341C162.568 205.949 160.697 205.69 158.89 205.573L158.874 205.816C160.67 205.933 162.531 206.191 164.404 206.58C168.337 207.397 171.832 208.581 174.794 210.098V210.098Z" fill="#FCFDFE"/>
<path d="M171.65 180.76C179.938 172.698 197.579 173.435 197.756 173.445L197.767 173.201C197.588 173.193 179.844 172.449 171.481 180.585L171.65 180.76Z" fill="#FCFDFE"/>
<path d="M181.869 159.72C184.35 146.858 174.765 131.994 174.668 131.845L174.465 131.98C174.562 132.127 184.093 146.91 181.631 159.673L181.87 159.72H181.869Z" fill="#FCFDFE"/>
</g>
</g>
<path d="M77.5072 145.08C77.7491 165.837 87.7045 158.998 96.8838 161.046C107.478 176.462 108.476 190.764 92.6586 203.115L75.0336 200.463C68.4944 200.158 60.8208 198.147 61.2537 189.39C61.743 179.485 64.072 173.195 52.9564 168.331C41.8401 163.467 37.065 154.592 41.5667 144.497C46.3041 133.873 35.1924 119.553 43.3129 112.435C57.4621 100.032 77.2558 123.466 77.508 145.08H77.5072Z" fill="url(#paint2_linear_545_2703)"/>
<mask id="mask2_545_2703" style="mask-type:luminance" maskUnits="userSpaceOnUse" x="39" y="108" width="66" height="96">
<path d="M77.5072 145.08C77.7491 165.837 87.7045 158.998 96.8838 161.046C107.478 176.462 108.476 190.764 92.6586 203.115L75.0336 200.463C68.4944 200.158 60.8208 198.147 61.2537 189.39C61.743 179.485 64.072 173.195 52.9564 168.331C41.8401 163.467 37.065 154.592 41.5667 144.497C46.3041 133.873 35.1924 119.553 43.3129 112.435C57.4621 100.032 77.2558 123.466 77.508 145.08H77.5072Z" fill="white"/>
</mask>
<g mask="url(#mask2_545_2703)">
<g style="mix-blend-mode:soft-light" opacity="0.5">
<path d="M81.8838 182.227C74.5253 174.13 68.1494 165.134 62.9345 155.486C57.674 145.756 53.6648 135.493 51.0177 124.981C49.5001 118.953 48.4279 112.812 47.8325 106.729L48.098 106.703C48.6926 112.773 49.7617 118.9 51.2761 124.915C53.9178 135.405 57.9191 145.648 63.1686 155.358C68.3733 164.986 74.7366 173.966 82.0802 182.046L81.8838 182.227Z" fill="#FCFDFE"/>
<path d="M62.9139 193.627L62.793 193.388C66.0661 191.711 69.9276 190.403 74.2699 189.5C76.3389 189.071 78.3945 188.786 80.3787 188.657L80.396 188.925C78.4236 189.053 76.3805 189.335 74.3233 189.763C70.0038 190.66 66.1651 191.96 62.9131 193.626L62.9139 193.627Z" fill="#FCFDFE"/>
<path d="M66.3648 161.409C57.2632 152.555 37.8897 153.364 37.6957 153.374L37.6831 153.106C37.8795 153.098 57.3653 152.281 66.5501 161.216L66.3648 161.409Z" fill="#FCFDFE"/>
<path d="M55.1425 138.301C52.4184 124.176 62.9448 107.853 63.0517 107.69L63.2747 107.837C63.1687 108 52.7019 124.233 55.4048 138.25L55.1433 138.301H55.1425Z" fill="#FCFDFE"/>
</g>
</g>
<path d="M74.36 14.9026C66.8397 78.8268 59.3185 142.084 51.7982 204.674C51.4604 207.48 53.3888 209.962 56.0854 210.194C86.3114 213.077 116.537 216.024 146.762 219.035C152.154 219.298 155.115 216.268 155.462 213.234C163.203 145.667 170.944 77.3938 178.685 8.41314C179.032 5.31493 176.423 2.65198 171.03 2.91662C140.656 5.09453 110.282 7.244 79.9072 9.36425C77.1917 9.54515 74.697 12.0359 74.36 14.9034V14.9026Z" fill="#26264F"/>
<path d="M70.1625 14.7728C62.5942 78.9758 55.0267 142.503 47.4585 205.356C47.1191 208.171 49.0585 210.667 51.7732 210.9C83.1585 213.573 114.544 216.299 145.929 219.079C148.793 219.335 151.426 217.053 151.775 214.006C159.565 146.129 167.354 77.5388 175.144 8.23033C175.494 5.11948 173.418 2.73064 170.534 2.92734C138.938 5.0468 107.341 7.14098 75.7442 9.20987C73.0115 9.39235 70.5018 11.8934 70.1617 14.7735L70.1625 14.7728Z" fill="url(#paint3_linear_545_2703)"/>
<path d="M71.9853 25.2761C64.9755 84.7598 57.9658 143.663 50.956 201.987C50.6386 204.623 52.4516 206.951 54.9879 207.158C84.5046 209.586 114.02 212.06 143.537 214.58C146.204 214.81 148.655 212.674 148.981 209.842C156.184 147.149 163.387 83.8435 170.59 19.9265C170.915 17.0344 168.983 14.7965 166.299 14.9568C136.599 16.6955 106.898 18.4176 77.1987 20.12C74.6474 20.2669 72.3019 22.5902 71.9861 25.2768L71.9853 25.2761Z" fill="url(#paint4_linear_545_2703)"/>
<path style="mix-blend-mode:multiply" opacity="0.35" d="M77.1981 20.1191C106.547 18.4373 135.895 16.7357 165.244 15.0176C164.337 20.2637 162.755 25.9727 160.088 31.7923C150.353 53.0327 136.052 54.2018 130.456 72.7113C124.692 91.7801 137.692 97.7482 131.341 114.965C124.449 133.646 107.547 130.943 98.6139 151.435C90.9137 169.099 100.827 177.173 92.8649 187.906C84.138 199.671 67.9936 195.682 51.2358 199.667C58.1529 142.1 65.07 83.9714 71.9871 25.2752C72.3037 22.5885 74.6484 20.2653 77.1997 20.1183L77.1981 20.1191Z" fill="url(#paint5_linear_545_2703)"/>
<path d="M120.066 12.2789C119.946 13.313 120.637 14.1053 121.61 14.0484C122.583 13.9892 123.468 13.0997 123.588 12.0609C123.707 11.0245 123.015 10.2282 122.042 10.2922C121.07 10.353 120.185 11.2425 120.066 12.2789Z" fill="#DE8BDF"/>
<path d="M109.462 69.7614C113.214 69.7614 116.255 66.1532 116.255 61.7022C116.255 57.2513 113.214 53.6431 109.462 53.6431C105.711 53.6431 102.669 57.2513 102.669 61.7022C102.669 66.1532 105.711 69.7614 109.462 69.7614Z" fill="url(#paint6_linear_545_2703)"/>
<path d="M82.4234 69.7614C86.175 69.7614 89.2163 66.1532 89.2163 61.7022C89.2163 57.2513 86.175 53.6431 82.4234 53.6431C78.6717 53.6431 75.6304 57.2513 75.6304 61.7022C75.6304 66.1532 78.6717 69.7614 82.4234 69.7614Z" fill="url(#paint7_linear_545_2703)"/>
<path d="M96.0175 69.7614C99.8225 69.7614 102.907 66.1532 102.907 61.7022C102.907 57.2513 99.8225 53.6431 96.0175 53.6431C92.2125 53.6431 89.1279 57.2513 89.1279 61.7022C89.1279 66.1532 92.2125 69.7614 96.0175 69.7614Z" fill="#D8DEE8"/>
<path d="M55.3833 69.7614C59.135 69.7614 62.1763 66.1532 62.1763 61.7022C62.1763 57.2513 59.135 53.6431 55.3833 53.6431C51.6317 53.6431 48.5903 57.2513 48.5903 61.7022C48.5903 66.1532 51.6317 69.7614 55.3833 69.7614Z" fill="url(#paint8_linear_545_2703)"/>
<path d="M68.9775 69.7614C72.7825 69.7614 75.8671 66.1532 75.8671 61.7022C75.8671 57.2513 72.7825 53.6431 68.9775 53.6431C65.1725 53.6431 62.0879 57.2513 62.0879 61.7022C62.0879 66.1532 65.1725 69.7614 68.9775 69.7614Z" fill="#D8DEE8"/>
<path d="M41.9375 69.7614C45.7425 69.7614 48.8271 66.1532 48.8271 61.7022C48.8271 57.2513 45.7425 53.6431 41.9375 53.6431C38.1324 53.6431 35.0479 57.2513 35.0479 61.7022C35.0479 66.1532 38.1324 69.7614 41.9375 69.7614Z" fill="#D8DEE8"/>
<path d="M123.058 69.7614C126.863 69.7614 129.947 66.1532 129.947 61.7022C129.947 57.2513 126.863 53.6431 123.058 53.6431C119.253 53.6431 116.168 57.2513 116.168 61.7022C116.168 66.1532 119.253 69.7614 123.058 69.7614Z" fill="#D8DEE8"/>
<path d="M171.952 14.1587L129.8 62.794H21.0044L73.7231 20.318L171.952 14.1587Z" fill="url(#paint9_linear_545_2703)"/>
<path d="M171.952 14.1587L129.799 62.794H116.168L160.613 14.8697L171.952 14.1587Z" fill="#F4F7FA"/>
<path d="M148.439 15.6333L102.734 62.7945H89.2686L136.174 16.4027L148.439 15.6333Z" fill="#F4F7FA"/>
<path d="M123.818 17.1772L75.7707 62.7941H62.2397L111.369 17.9577L123.818 17.1772Z" fill="#F4F7FA"/>
<path d="M86.1841 19.5365L98.8243 18.7441L48.6766 62.7937H35.0796L86.1841 19.5365Z" fill="#F4F7FA"/>
<path d="M35.0658 62.7944C34.6157 66.7276 31.7808 69.7626 28.3427 69.7626C24.9046 69.7626 22.0697 66.7284 21.6196 62.7944H35.0666H35.0658Z" fill="url(#paint10_linear_545_2703)"/>
<g opacity="0.8">
<g style="mix-blend-mode:multiply" opacity="0.3">
<path d="M82.5951 102.238L139.613 102.69C140.573 102.698 141.445 101.977 141.558 101.079L142.047 97.2442C142.163 96.3405 141.472 95.6074 140.507 95.6074L83.1866 95.609C82.3437 95.609 81.6014 96.2923 81.5268 97.1352L81.2111 100.711C81.1372 101.548 81.7562 102.232 82.5943 102.238H82.5951Z" fill="url(#paint11_linear_545_2703)"/>
<path d="M84.4795 103.599L87.3238 121.308C87.5029 122.424 88.4463 123.233 89.6143 123.271L126.927 124.499C128.205 124.541 129.42 123.764 129.873 122.613L137.156 104.102L84.4795 103.6V103.599ZM122.439 107.092C122.525 106.353 123.226 105.761 124.007 105.77L125.356 105.786C126.141 105.795 126.706 106.405 126.618 107.148L124.924 121.476C124.838 122.204 124.139 122.775 123.366 122.75L122.033 122.709C121.263 122.685 120.707 122.079 120.791 121.354L122.438 107.093L122.439 107.092ZM114.99 106.994C115.071 106.261 115.758 105.674 116.525 105.683L117.852 105.698C118.623 105.707 119.182 106.312 119.098 107.048L117.488 121.255C117.406 121.977 116.722 122.543 115.961 122.519L114.651 122.479C113.894 122.455 113.345 121.854 113.425 121.135L114.99 106.994ZM107.667 106.899C107.744 106.172 108.417 105.59 109.171 105.599L110.476 105.614C111.234 105.622 111.785 106.222 111.706 106.952L110.177 121.04C110.099 121.756 109.428 122.317 108.681 122.293L107.393 122.253C106.649 122.23 106.107 121.634 106.182 120.921L107.667 106.898V106.899ZM100.466 106.804C100.539 106.084 101.199 105.506 101.94 105.514L103.223 105.529C103.968 105.538 104.513 106.132 104.437 106.856L102.987 120.827C102.914 121.537 102.256 122.094 101.521 122.071L100.255 122.032C99.5226 122.009 98.9876 121.418 99.0591 120.711L100.467 106.803L100.466 106.804ZM93.3855 106.711C93.4546 105.996 94.1011 105.423 94.8308 105.432L96.0923 105.447C96.8252 105.456 97.3624 106.045 97.2917 106.763L95.9179 120.62C95.848 121.324 95.2039 121.876 94.4805 121.853L93.2354 121.815C92.5151 121.793 91.9865 121.206 92.0548 120.505L93.387 106.711H93.3855Z" fill="url(#paint12_linear_545_2703)"/>
<path d="M131.842 93.6741C132.645 94.408 134.011 94.3179 134.895 93.4703C135.782 92.6203 135.846 91.3319 135.038 90.5957C134.231 89.8602 132.861 89.9574 131.979 90.8097C131.101 91.6597 131.04 92.941 131.842 93.6741Z" fill="url(#paint13_linear_545_2703)"/>
<path d="M115.183 75.4813C115.51 75.1471 116.109 75.1795 116.521 75.5547L133.293 90.8467C133.714 91.2306 133.778 91.8097 133.437 92.1383C133.095 92.4669 132.478 92.4227 132.058 92.0388L115.333 76.7641C114.923 76.3897 114.856 75.8154 115.183 75.4813Z" fill="url(#paint14_linear_545_2703)"/>
<path d="M91.3048 93.7643C90.4289 94.4666 89.2114 94.3852 88.583 93.5834C87.9554 92.7824 88.1518 91.5627 89.0237 90.8573C89.8979 90.1495 91.1202 90.2253 91.7517 91.0295C92.384 91.8344 92.1829 93.0597 91.3048 93.7635V93.7643Z" fill="url(#paint15_linear_545_2703)"/>
<path d="M110.922 75.5807C110.667 75.2615 110.066 75.3224 109.578 75.7158L90.5508 91.0781C90.0929 91.4478 89.9201 91.9992 90.1636 92.3096C90.4071 92.6201 90.9766 92.5734 91.4353 92.2045L110.499 76.8699C110.986 76.4773 111.176 75.8998 110.922 75.5807Z" fill="url(#paint16_linear_545_2703)"/>
</g>
<path d="M81.8295 101.468L138.847 101.92C139.807 101.928 140.679 101.206 140.793 100.308L141.281 96.4737C141.397 95.57 140.706 94.8369 139.741 94.8369L82.421 94.8385C81.5781 94.8385 80.8358 95.5218 80.7612 96.3647L80.4454 99.94C80.3716 100.777 80.9906 101.461 81.8287 101.468H81.8295Z" fill="white"/>
<path d="M83.7137 102.83L86.5572 120.539C86.7363 121.655 87.6797 122.464 88.8477 122.502L126.16 123.73C127.438 123.772 128.654 122.995 129.107 121.844L136.389 103.333L83.7129 102.831L83.7137 102.83ZM121.674 106.322C121.759 105.583 122.46 104.991 123.241 105L124.59 105.016C125.375 105.025 125.94 105.635 125.852 106.378L124.158 120.706C124.072 121.434 123.373 122.005 122.6 121.98L121.268 121.939C120.497 121.915 119.942 121.309 120.025 120.584L121.672 106.323L121.674 106.322ZM114.224 106.225C114.305 105.491 114.992 104.905 115.76 104.913L117.086 104.928C117.857 104.937 118.416 105.542 118.332 106.278L116.722 120.486C116.64 121.208 115.956 121.773 115.195 121.75L113.885 121.709C113.128 121.686 112.579 121.084 112.659 120.366L114.224 106.225ZM106.901 106.129C106.978 105.402 107.651 104.82 108.405 104.829L109.71 104.844C110.468 104.852 111.019 105.452 110.94 106.182L109.411 120.27C109.333 120.986 108.663 121.547 107.915 121.524L106.627 121.483C105.883 121.46 105.341 120.864 105.416 120.151L106.901 106.128V106.129ZM99.7001 106.034C99.7732 105.314 100.433 104.736 101.175 104.744L102.457 104.759C103.203 104.768 103.747 105.362 103.672 106.086L102.222 120.057C102.148 120.768 101.49 121.325 100.755 121.302L99.4888 121.262C98.7567 121.239 98.2218 120.648 98.2933 119.941L99.7009 106.033L99.7001 106.034ZM92.6196 105.941C92.6888 105.226 93.3352 104.653 94.065 104.662L95.3265 104.677C96.0593 104.686 96.5966 105.275 96.5259 105.993L95.1521 119.85C95.0822 120.554 94.4381 121.107 93.7146 121.084L92.4696 121.045C91.7493 121.023 91.2207 120.437 91.289 119.735L92.6212 105.941H92.6196Z" fill="white"/>
<path d="M131.077 92.9041C131.88 93.638 133.245 93.5479 134.13 92.7003C135.017 91.8503 135.081 90.5619 134.273 89.8256C133.465 89.0902 132.096 89.1874 131.214 90.0397C130.336 90.8897 130.275 92.171 131.077 92.9041Z" fill="white"/>
<path d="M114.416 74.7112C114.744 74.3771 115.343 74.4095 115.755 74.7847L132.527 90.0767C132.948 90.4606 133.012 91.0397 132.671 91.3683C132.329 91.6969 131.712 91.6527 131.292 91.2687L114.567 75.9941C114.157 75.6197 114.09 75.0454 114.416 74.7112Z" fill="white"/>
<path d="M90.5391 92.9943C89.6633 93.6965 88.4458 93.6152 87.8174 92.8134C87.1898 92.0124 87.3861 90.7927 88.258 90.0872C89.1323 89.3794 90.3545 89.4553 90.9861 90.2594C91.6184 91.0644 91.4173 92.2896 90.5391 92.9935V92.9943Z" fill="white"/>
<path d="M110.156 74.8107C109.901 74.4915 109.3 74.5523 108.812 74.9457L89.7847 90.308C89.3268 90.6777 89.154 91.2291 89.3975 91.5396C89.641 91.85 90.2105 91.8034 90.6692 91.4345L109.732 76.0999C110.22 75.7073 110.41 75.1298 110.156 74.8107Z" fill="white"/>
</g>
<path d="M68.8425 175.715C68.7034 177.38 69.9092 178.781 71.5383 178.848L132.456 183.107C134.211 183.179 135.822 181.84 136.051 180.11L140.028 139.217C140.262 137.45 139.005 135.972 137.222 135.918L76.6047 134.111C74.9513 134.062 73.4981 135.403 73.3559 137.103L68.8417 175.715H68.8425Z" fill="url(#paint17_linear_545_2703)"/>
<path d="M97.8742 171.631C96.6967 171.374 95.7761 170.524 95.4525 169.386L90.0247 150.271C89.5157 148.48 90.6162 146.543 92.4809 145.947C94.3441 145.351 96.267 146.317 96.7745 148.108L100.536 161.375L115.088 145.193C116.395 143.741 118.597 143.536 120.007 144.734C121.417 145.933 121.503 148.081 120.198 149.533L101.387 170.464C100.525 171.422 99.226 171.878 97.9928 171.655C97.9527 171.647 97.9134 171.64 97.8742 171.631Z" fill="white"/>
<path d="M143.523 180.88C143.806 180.88 144.048 180.664 144.075 180.375C144.561 175.241 146.226 170.365 148.761 166.642C151.006 163.344 153.68 161.376 155.914 161.376H155.921C164.058 161.392 165.76 180.179 165.776 180.369C165.802 180.676 166.07 180.904 166.377 180.878C166.683 180.852 166.909 180.581 166.883 180.273C166.813 179.457 165.071 160.276 155.923 160.258H155.913C153.274 160.258 150.333 162.354 147.843 166.01C145.204 169.886 143.472 174.95 142.968 180.268C142.939 180.575 143.163 180.848 143.469 180.877C143.487 180.879 143.504 180.879 143.522 180.879L143.523 180.88Z" fill="url(#paint18_linear_545_2703)"/>
<path d="M177.421 219.546L166.71 225L160.22 204.971L170.914 178.121L173.946 178.868L178.547 217.43C178.651 218.303 178.201 219.149 177.421 219.546Z" fill="url(#paint19_linear_545_2703)"/>
<path style="mix-blend-mode:multiply" opacity="0.52" d="M160.22 204.971L170.914 178.121L172.703 178.561C172.951 182.146 172.842 185.097 172.673 187.245C171.956 196.388 169.576 198.931 170.729 205.309C171.688 210.612 173.783 211.331 173.6 214.899C173.4 218.784 170.705 222.038 167.502 224.597L166.712 224.999L160.222 204.97L160.22 204.971Z" fill="url(#paint20_linear_545_2703)"/>
<path d="M170.913 178.121H130.976L117.759 221.033L166.71 225L170.913 178.121Z" fill="url(#paint21_linear_545_2703)"/>
<path d="M158.542 181.799C158.794 181.799 159.022 181.625 159.082 181.367C159.196 180.881 161.82 169.382 158.12 163.74C157.06 162.122 155.578 161.135 153.716 160.805C144.152 159.11 138.263 179.769 138.018 180.649C137.934 180.946 138.107 181.254 138.402 181.338C138.697 181.422 139.004 181.248 139.087 180.952C139.144 180.746 144.941 160.382 153.522 161.906C155.093 162.185 156.293 162.986 157.192 164.356C160.63 169.601 158.026 180.999 158 181.114C157.93 181.414 158.115 181.715 158.414 181.785C158.456 181.796 158.499 181.8 158.541 181.8L158.542 181.799Z" fill="url(#paint22_linear_545_2703)"/>
<g style="mix-blend-mode:multiply" opacity="0.3">
<path d="M130.977 178.121H150.789C151.766 179.12 152.46 180.272 152.526 181.565C152.837 187.636 138.958 189.631 137.62 197.952C136.654 203.955 142.595 210.882 147.896 213.967C153.481 217.219 157.266 215.572 161.043 219.182C162.703 220.768 163.714 222.751 164.315 224.806L117.758 221.033L130.976 178.121L130.977 178.121Z" fill="url(#paint23_linear_545_2703)"/>
</g>
<path d="M158.537 183.445C159.395 183.445 160.09 182.746 160.09 181.884C160.09 181.022 159.395 180.323 158.537 180.323C157.68 180.323 156.985 181.022 156.985 181.884C156.985 182.746 157.68 183.445 158.537 183.445Z" fill="url(#paint24_linear_545_2703)"/>
<path d="M138.292 183.299C139.149 183.299 139.844 182.6 139.844 181.738C139.844 180.876 139.149 180.177 138.292 180.177C137.435 180.177 136.74 180.876 136.74 181.738C136.74 182.6 137.435 183.299 138.292 183.299Z" fill="url(#paint25_linear_545_2703)"/>
<defs>
<linearGradient id="paint0_linear_545_2703" x1="110.829" y1="230.441" x2="228.337" y2="28.397" gradientUnits="userSpaceOnUse">
<stop stop-color="#AA80F9"/>
<stop offset="1" stop-color="#6165D7"/>
</linearGradient>
<linearGradient id="paint1_linear_545_2703" x1="188.073" y1="148.559" x2="126.682" y2="249.054" gradientUnits="userSpaceOnUse">
<stop stop-color="#E38DDD"/>
<stop offset="1" stop-color="#9571F6"/>
</linearGradient>
<linearGradient id="paint2_linear_545_2703" x1="82.056" y1="136.571" x2="35.694" y2="212.464" gradientUnits="userSpaceOnUse">
<stop stop-color="#E38DDD"/>
<stop offset="1" stop-color="#9571F6"/>
</linearGradient>
<linearGradient id="paint3_linear_545_2703" x1="173.188" y1="110.759" x2="-18.6129" y2="103.468" gradientUnits="userSpaceOnUse">
<stop stop-color="#444B8C"/>
<stop offset="1" stop-color="#26264F"/>
</linearGradient>
<linearGradient id="paint4_linear_545_2703" x1="75.5483" y1="37.4446" x2="261.789" y2="421.561" gradientUnits="userSpaceOnUse">
<stop stop-color="#FFC444"/>
<stop offset="1" stop-color="#F36F56"/>
</linearGradient>
<linearGradient id="paint5_linear_545_2703" x1="74.8848" y1="37.7668" x2="261.125" y2="421.883" gradientUnits="userSpaceOnUse">
<stop stop-color="#FFC444"/>
<stop offset="1" stop-color="#F36F56"/>
</linearGradient>
<linearGradient id="paint6_linear_545_2703" x1="116.255" y1="61.7022" x2="102.67" y2="61.7022" gradientUnits="userSpaceOnUse">
<stop stop-color="#FF9085"/>
<stop offset="1" stop-color="#FB6FBB"/>
</linearGradient>
<linearGradient id="paint7_linear_545_2703" x1="89.2156" y1="-0.00056732" x2="75.6304" y2="-0.00056732" gradientUnits="userSpaceOnUse">
<stop stop-color="#FF9085"/>
<stop offset="1" stop-color="#FB6FBB"/>
</linearGradient>
<linearGradient id="paint8_linear_545_2703" x1="62.1763" y1="-0.000566808" x2="48.5903" y2="-0.000566808" gradientUnits="userSpaceOnUse">
<stop stop-color="#FF9085"/>
<stop offset="1" stop-color="#FB6FBB"/>
</linearGradient>
<linearGradient id="paint9_linear_545_2703" x1="171.952" y1="38.4759" x2="21.0044" y2="38.4759" gradientUnits="userSpaceOnUse">
<stop stop-color="#FF9085"/>
<stop offset="1" stop-color="#FB6FBB"/>
</linearGradient>
<linearGradient id="paint10_linear_545_2703" x1="35.0658" y1="66.2781" x2="21.6196" y2="66.2781" gradientUnits="userSpaceOnUse">
<stop stop-color="#FF9085"/>
<stop offset="1" stop-color="#FB6FBB"/>
</linearGradient>
<linearGradient id="paint11_linear_545_2703" x1="142.06" y1="99.1496" x2="81.2056" y2="99.1496" gradientUnits="userSpaceOnUse">
<stop stop-color="#FFC444"/>
<stop offset="1" stop-color="#F36F56"/>
</linearGradient>
<linearGradient id="paint12_linear_545_2703" x1="137.155" y1="114.05" x2="84.4795" y2="114.05" gradientUnits="userSpaceOnUse">
<stop stop-color="#FFC444"/>
<stop offset="1" stop-color="#F36F56"/>
</linearGradient>
<linearGradient id="paint13_linear_545_2703" x1="135.605" y1="92.1361" x2="131.279" y2="92.1361" gradientUnits="userSpaceOnUse">
<stop stop-color="#FFC444"/>
<stop offset="1" stop-color="#F36F56"/>
</linearGradient>
<linearGradient id="paint14_linear_545_2703" x1="133.656" y1="83.8042" x2="114.975" y2="83.8042" gradientUnits="userSpaceOnUse">
<stop stop-color="#FFC444"/>
<stop offset="1" stop-color="#F36F56"/>
</linearGradient>
<linearGradient id="paint15_linear_545_2703" x1="92.1209" y1="92.3068" x2="88.2162" y2="92.3068" gradientUnits="userSpaceOnUse">
<stop stop-color="#FFC444"/>
<stop offset="1" stop-color="#F36F56"/>
</linearGradient>
<linearGradient id="paint16_linear_545_2703" x1="111.035" y1="83.9455" x2="90.0536" y2="83.9455" gradientUnits="userSpaceOnUse">
<stop stop-color="#FFC444"/>
<stop offset="1" stop-color="#F36F56"/>
</linearGradient>
<linearGradient id="paint17_linear_545_2703" x1="140.056" y1="158.609" x2="68.8315" y2="158.609" gradientUnits="userSpaceOnUse">
<stop stop-color="#AA80F9"/>
<stop offset="1" stop-color="#6165D7"/>
</linearGradient>
<linearGradient id="paint18_linear_545_2703" x1="169.491" y1="167.277" x2="164.623" y2="169.074" gradientUnits="userSpaceOnUse">
<stop stop-color="#AB316D"/>
<stop offset="1" stop-color="#792D3D"/>
</linearGradient>
<linearGradient id="paint19_linear_545_2703" x1="183.105" y1="184.077" x2="169.452" y2="206.843" gradientUnits="userSpaceOnUse">
<stop stop-color="#FF9085"/>
<stop offset="1" stop-color="#FB6FBB"/>
</linearGradient>
<linearGradient id="paint20_linear_545_2703" x1="181.012" y1="182.822" x2="167.359" y2="205.587" gradientUnits="userSpaceOnUse">
<stop stop-color="#FF9085"/>
<stop offset="1" stop-color="#FB6FBB"/>
</linearGradient>
<linearGradient id="paint21_linear_545_2703" x1="159.535" y1="193.275" x2="121.255" y2="222.604" gradientUnits="userSpaceOnUse">
<stop stop-color="#FF9085"/>
<stop offset="1" stop-color="#FB6FBB"/>
</linearGradient>
<linearGradient id="paint22_linear_545_2703" x1="152.044" y1="158.853" x2="148.113" y2="183.776" gradientUnits="userSpaceOnUse">
<stop stop-color="#AB316D"/>
<stop offset="1" stop-color="#792D3D"/>
</linearGradient>
<linearGradient id="paint23_linear_545_2703" x1="159.042" y1="192.632" x2="120.763" y2="221.961" gradientUnits="userSpaceOnUse">
<stop stop-color="#FF9085"/>
<stop offset="1" stop-color="#FB6FBB"/>
</linearGradient>
<linearGradient id="paint24_linear_545_2703" x1="160.632" y1="181.101" x2="160.006" y2="181.332" gradientUnits="userSpaceOnUse">
<stop stop-color="#AB316D"/>
<stop offset="1" stop-color="#792D3D"/>
</linearGradient>
<linearGradient id="paint25_linear_545_2703" x1="140.386" y1="180.956" x2="139.76" y2="181.188" gradientUnits="userSpaceOnUse">
<stop stop-color="#AB316D"/>
<stop offset="1" stop-color="#792D3D"/>
</linearGradient>
</defs>
</svg>
