<svg width="110" height="110" viewBox="0 0 110 110" fill="none" xmlns="http://www.w3.org/2000/svg">
<path d="M96.49 0.285645H13.7784C6.31708 0.285645 0.268448 6.31243 0.268448 13.7468V96.1596C0.268448 103.594 6.31708 109.621 13.7784 109.621H96.49C103.951 109.621 110 103.594 110 96.1596V13.7468C110 6.31243 103.951 0.285645 96.49 0.285645Z" fill="#F7C815"/>
<mask id="mask0_235_1876" style="mask-type:luminance" maskUnits="userSpaceOnUse" x="0" y="0" width="110" height="110">
<path d="M96.49 0.285645H13.7784C6.31708 0.285645 0.268448 6.31243 0.268448 13.7468V96.1596C0.268448 103.594 6.31708 109.621 13.7784 109.621H96.49C103.951 109.621 110 103.594 110 96.1596V13.7468C110 6.31243 103.951 0.285645 96.49 0.285645Z" fill="white"/>
</mask>
<g mask="url(#mask0_235_1876)">
<path d="M24.1187 115.232V21.5864H60.1556C65.2642 21.5864 69.8701 22.8538 73.9939 25.3989C78.1074 27.944 81.3695 31.3476 83.7904 35.5996C86.2113 39.8618 87.4115 44.5737 87.4115 49.7456C87.4115 53.9771 86.6319 57.8714 85.1034 61.4181C83.5545 64.9648 81.4105 68.0311 78.6511 70.6171C75.9019 73.203 72.7424 75.1655 69.152 76.5044L91.6379 115.232H72.7731L51.0361 77.9763H40.4907V115.232H24.1187ZM40.501 61.6634H58.2989C60.6275 61.6634 62.7407 61.0808 64.6794 59.9258C66.5977 58.7606 68.1467 57.207 69.3059 55.2445C70.4753 53.2821 71.06 51.105 71.06 48.6928C71.06 46.2806 70.4753 44.0422 69.3059 42.0695C68.1467 40.1071 66.5977 38.5535 64.6794 37.3883C62.7509 36.2333 60.6275 35.6507 58.2989 35.6507H40.501V61.6736V61.6634Z" fill="black"/>
</g>
</svg>
