<svg width="18" height="18" viewBox="0 0 18 18" fill="none" xmlns="http://www.w3.org/2000/svg">
<path d="M9 8C11.5 8 13.625 7.60833 15.375 6.825C17.125 6.04167 18 5.1 18 4C18 2.9 17.125 1.95833 15.375 1.175C13.625 0.391667 11.5 0 9 0C6.5 0 4.375 0.391667 2.625 1.175C0.875 1.95833 0 2.9 0 4C0 5.1 0.875 6.04167 2.625 6.825C4.375 7.60833 6.5 8 9 8ZM9 10.5C9.68333 10.5 10.5375 10.4292 11.5625 10.2875C12.5875 10.1458 13.575 9.91667 14.525 9.6C15.475 9.28333 16.2917 8.87083 16.975 8.3625C17.6583 7.85417 18 7.23333 18 6.5V9C18 9.73333 17.6583 10.3542 16.975 10.8625C16.2917 11.3708 15.475 11.7833 14.525 12.1C13.575 12.4167 12.5875 12.6458 11.5625 12.7875C10.5375 12.9292 9.68333 13 9 13C8.31667 13 7.4625 12.9292 6.4375 12.7875C5.4125 12.6458 4.425 12.4167 3.475 12.1C2.525 11.7833 1.70833 11.3708 1.025 10.8625C0.341667 10.3542 0 9.73333 0 9V6.5C0 7.23333 0.341667 7.85417 1.025 8.3625C1.70833 8.87083 2.525 9.28333 3.475 9.6C4.425 9.91667 5.4125 10.1458 6.4375 10.2875C7.4625 10.4292 8.31667 10.5 9 10.5ZM9 15.5C9.68333 15.5 10.5375 15.4292 11.5625 15.2875C12.5875 15.1458 13.575 14.9167 14.525 14.6C15.475 14.2833 16.2917 13.8708 16.975 13.3625C17.6583 12.8542 18 12.2333 18 11.5V14C18 14.7333 17.6583 15.3542 16.975 15.8625C16.2917 16.3708 15.475 16.7833 14.525 17.1C13.575 17.4167 12.5875 17.6458 11.5625 17.7875C10.5375 17.9292 9.68333 18 9 18C8.31667 18 7.4625 17.9292 6.4375 17.7875C5.4125 17.6458 4.425 17.4167 3.475 17.1C2.525 16.7833 1.70833 16.3708 1.025 15.8625C0.341667 15.3542 0 14.7333 0 14V11.5C0 12.2333 0.341667 12.8542 1.025 13.3625C1.70833 13.8708 2.525 14.2833 3.475 14.6C4.425 14.9167 5.4125 15.1458 6.4375 15.2875C7.4625 15.4292 8.31667 15.5 9 15.5Z" fill="#1C1B1F"/>
</svg>
