<svg width="62" height="61" viewBox="0 0 62 61" fill="none" xmlns="http://www.w3.org/2000/svg">
<path d="M28.2502 60.2503V54.7503C22.521 54.1086 17.6054 51.7367 13.5033 47.6346C9.40124 43.5326 7.02936 38.6169 6.3877 32.8878H0.887695V27.3878H6.3877C7.02936 21.6586 9.40124 16.743 13.5033 12.6409C17.6054 8.53881 22.521 6.16694 28.2502 5.52527V0.0252686H33.7502V5.52527C39.4794 6.16694 44.395 8.53881 48.4971 12.6409C52.5992 16.743 54.971 21.6586 55.6127 27.3878H61.1127V32.8878H55.6127C54.971 38.6169 52.5992 43.5326 48.4971 47.6346C44.395 51.7367 39.4794 54.1086 33.7502 54.7503V60.2503H28.2502ZM31.0002 49.3878C36.3169 49.3878 40.8544 47.5086 44.6127 43.7503C48.371 39.9919 50.2502 35.4544 50.2502 30.1378C50.2502 24.8211 48.371 20.2836 44.6127 16.5253C40.8544 12.7669 36.3169 10.8878 31.0002 10.8878C25.6835 10.8878 21.146 12.7669 17.3877 16.5253C13.6294 20.2836 11.7502 24.8211 11.7502 30.1378C11.7502 35.4544 13.6294 39.9919 17.3877 43.7503C21.146 47.5086 25.6835 49.3878 31.0002 49.3878Z" fill="#AAAAAA"/>
</svg>
