<svg width="208" height="56" viewBox="0 0 208 56" fill="none" xmlns="http://www.w3.org/2000/svg">
<g clip-path="url(#clip0_428_663)">
<path d="M62.7283 42.4656V12.3892H74.285C75.9267 12.3892 77.3987 12.7975 78.721 13.6141C80.0384 14.4308 81.0863 15.5213 81.8647 16.8907C82.6431 18.26 83.0273 19.7738 83.0273 21.437C83.0273 22.7964 82.7778 24.0463 82.2838 25.1866C81.7848 26.3269 81.1012 27.3079 80.218 28.1395C79.3348 28.9711 78.3218 29.5985 77.1692 30.0317L84.3846 42.4706H78.3318L71.3609 30.5048H67.9777V42.4706H62.7233L62.7283 42.4656ZM67.9777 25.2613H73.6862C74.4297 25.2613 75.1133 25.0721 75.7321 24.7036C76.3458 24.3301 76.8448 23.8322 77.2141 23.1998C77.5883 22.5723 77.7779 21.8702 77.7779 21.0934C77.7779 20.3166 77.5883 19.5995 77.2141 18.9671C76.8448 18.3397 76.3458 17.8368 75.7321 17.4633C75.1133 17.0899 74.4347 16.9056 73.6862 16.9056H67.9777V25.2613Z" fill="black"/>
<path d="M96.5051 43.0234C94.5241 43.0234 92.7177 42.5154 91.091 41.4996C89.4643 40.4838 88.1619 39.1144 87.1939 37.3965C86.2209 35.6785 85.7418 33.7813 85.7418 31.7048C85.7418 30.1413 86.0213 28.6773 86.5801 27.3129C87.144 25.9435 87.9124 24.7434 88.8954 23.7027C89.8785 22.667 91.0212 21.8503 92.3285 21.2627C93.6359 20.6751 95.0281 20.3813 96.5051 20.3813C98.1817 20.3813 99.7236 20.7349 101.121 21.442C102.518 22.1491 103.706 23.1201 104.684 24.35C105.657 25.58 106.37 26.9842 106.814 28.5627C107.263 30.1363 107.363 31.7845 107.119 33.5025H91.3804C91.585 34.3042 91.9094 35.0262 92.3684 35.6636C92.8275 36.301 93.4113 36.8089 94.1149 37.1873C94.8135 37.5658 95.6119 37.765 96.5051 37.7749C97.4232 37.7898 98.2615 37.5708 99.015 37.1226C99.7685 36.6695 100.397 36.057 100.901 35.2851L106.26 36.53C105.387 38.4372 104.08 39.9958 102.343 41.2008C100.607 42.4109 98.6607 43.0184 96.5101 43.0184L96.5051 43.0234ZM91.2058 29.5786H101.799C101.645 28.7171 101.305 27.9403 100.796 27.2481C100.287 26.556 99.6587 25.9983 98.9102 25.585C98.1667 25.1717 97.3634 24.9625 96.5001 24.9625C95.6368 24.9625 94.8434 25.1667 94.1099 25.575C93.3764 25.9833 92.7577 26.5361 92.2437 27.2282C91.7347 27.9254 91.3854 28.7072 91.2008 29.5836L91.2058 29.5786Z" fill="black"/>
<path d="M130.347 28.8864V42.4656H125.092V30.2608C125.092 29.4142 124.883 28.6474 124.464 27.9503C124.05 27.2581 123.491 26.7054 122.797 26.2971C122.103 25.8887 121.33 25.6846 120.487 25.6846C119.643 25.6846 118.865 25.8887 118.171 26.2971C117.478 26.7054 116.924 27.2581 116.515 27.9503C116.106 28.6424 115.901 29.4142 115.901 30.2608V42.4656H110.647L110.622 20.9839H115.876L115.901 22.896C116.63 22.1242 117.508 21.5117 118.526 21.0586C119.549 20.6104 120.641 20.3813 121.819 20.3813C123.381 20.3813 124.813 20.7648 126.1 21.5316C127.393 22.2985 128.426 23.3243 129.194 24.604C129.963 25.8837 130.347 27.3129 130.347 28.8914V28.8864Z" fill="black"/>
<path d="M154.743 12.3892V17.6326H145.526V42.4656H140.272V17.6326H131.055V12.3892H154.738H154.743Z" fill="black"/>
<path d="M165.246 43.0235C163.265 43.0235 161.459 42.5155 159.832 41.4997C158.206 40.4839 156.903 39.1195 155.935 37.4065C154.962 35.6936 154.483 33.8013 154.483 31.7249C154.483 30.1513 154.762 28.6774 155.321 27.308C155.885 25.9386 156.654 24.7385 157.637 23.6978C158.62 22.6571 159.762 21.8454 161.07 21.2578C162.377 20.6703 163.769 20.3765 165.246 20.3765C167.227 20.3765 169.029 20.8844 170.66 21.9002C172.287 22.921 173.589 24.2854 174.558 26.0034C175.526 27.7213 176.01 29.6285 176.01 31.7199C176.01 33.2835 175.725 34.7425 175.166 36.1019C174.607 37.4613 173.834 38.6614 172.856 39.7021C171.868 40.7378 170.73 41.5545 169.433 42.1371C168.135 42.7247 166.738 43.0185 165.246 43.0185V43.0235ZM165.246 37.78C166.294 37.78 167.232 37.5011 168.066 36.9434C168.899 36.3857 169.558 35.6487 170.037 34.7325C170.521 33.8163 170.755 32.8154 170.755 31.7249C170.755 30.6343 170.511 29.5886 170.012 28.6624C169.518 27.7412 168.849 26.9993 168.011 26.4515C167.172 25.8988 166.249 25.6249 165.246 25.6249C164.243 25.6249 163.275 25.9038 162.447 26.4615C161.614 27.0192 160.95 27.7661 160.461 28.6973C159.977 29.6285 159.732 30.6393 159.732 31.7249C159.732 32.8104 159.987 33.881 160.486 34.7972C160.985 35.7135 161.659 36.4405 162.502 36.9783C163.34 37.5161 164.258 37.785 165.246 37.785V37.78Z" fill="black"/>
<path d="M188.923 43.0235C186.942 43.0235 185.141 42.5155 183.509 41.4997C181.883 40.4839 180.58 39.1195 179.612 37.4065C178.644 35.6936 178.16 33.8013 178.16 31.7249C178.16 30.1513 178.44 28.6774 179.004 27.308C179.562 25.9386 180.336 24.7385 181.314 23.6978C182.292 22.6571 183.445 21.8454 184.752 21.2578C186.054 20.6703 187.446 20.3765 188.928 20.3765C190.909 20.3765 192.711 20.8844 194.343 21.9002C195.969 22.921 197.272 24.2854 198.24 26.0034C199.208 27.7213 199.692 29.6285 199.692 31.7199C199.692 33.2835 199.412 34.7425 198.853 36.1019C198.29 37.4613 197.521 38.6614 196.538 39.7021C195.555 40.7378 194.412 41.5545 193.115 42.1371C191.818 42.7247 190.42 43.0185 188.923 43.0185V43.0235ZM188.923 37.78C189.971 37.78 190.909 37.5011 191.743 36.9434C192.576 36.3857 193.23 35.6487 193.714 34.7325C194.198 33.8163 194.437 32.8154 194.437 31.7249C194.437 30.6343 194.188 29.5886 193.694 28.6624C193.195 27.7412 192.531 26.9993 191.693 26.4515C190.855 25.9038 189.931 25.6249 188.923 25.6249C187.916 25.6249 186.957 25.9038 186.124 26.4615C185.291 27.0192 184.627 27.7661 184.143 28.6973C183.654 29.6285 183.41 30.6393 183.41 31.7249C183.41 32.8104 183.664 33.881 184.163 34.7972C184.667 35.7135 185.336 36.4405 186.179 36.9783C187.022 37.5161 187.935 37.785 188.923 37.785V37.78Z" fill="black"/>
<path d="M202.746 42.4658V10.2432H208V42.4658H202.746Z" fill="black"/>
<path d="M46.8055 0H6.57173C2.94226 0 0 2.93615 0 6.55806V46.7082C0 50.3301 2.94226 53.2662 6.57173 53.2662H46.8055C50.435 53.2662 53.3772 50.3301 53.3772 46.7082V6.55806C53.3772 2.93615 50.435 0 46.8055 0Z" fill="#F7C815"/>
<mask id="mask0_428_663" style="mask-type:luminance" maskUnits="userSpaceOnUse" x="0" y="0" width="54" height="54">
<path d="M46.8055 0H6.57173C2.94226 0 0 2.93615 0 6.55806V46.7082C0 50.3301 2.94226 53.2662 6.57173 53.2662H46.8055C50.435 53.2662 53.3772 50.3301 53.3772 46.7082V6.55806C53.3772 2.93615 50.435 0 46.8055 0Z" fill="white"/>
</mask>
<g mask="url(#mask0_428_663)">
<path d="M11.6016 56.0001V10.3774H29.1312C31.6161 10.3774 33.8566 10.9949 35.8626 12.2348C37.8635 13.4747 39.4503 15.1329 40.628 17.2044C41.8056 19.2809 42.3894 21.5764 42.3894 24.0961C42.3894 26.1576 42.0102 28.0548 41.2667 29.7827C40.5132 31.5106 39.4703 33.0045 38.128 34.2643C36.7907 35.5242 35.2538 36.4802 33.5073 37.1326L44.4452 56.0001H35.2688L24.6951 37.8496H19.5655V56.0001H11.6016ZM19.5705 29.9023H28.228C29.3607 29.9023 30.3886 29.6184 31.3317 29.0557C32.2648 28.4881 33.0183 27.7312 33.5822 26.7751C34.151 25.819 34.4355 24.7584 34.4355 23.5832C34.4355 22.408 34.151 21.3175 33.5822 20.3565C33.0183 19.4004 32.2648 18.6435 31.3317 18.0758C30.3936 17.5131 29.3607 17.2293 28.228 17.2293H19.5705V29.9072V29.9023Z" fill="black"/>
</g>
</g>
<defs>
<clipPath id="clip0_428_663">
<rect width="208" height="56" fill="white"/>
</clipPath>
</defs>
</svg>
